<mxfile host="app.diagrams.net" agent="Mozilla/5.0 (Windows NT 10.0; Win64; x64) AppleWebKit/537.36 (KHTML, like Gecko) Chrome/128.0.0.0 Safari/537.36" version="24.7.10">
  <diagram name="Page-1" id="zdLS6XzUSG3x8lp1yBCd">
    <mxGraphModel dx="1434" dy="841" grid="1" gridSize="10" guides="1" tooltips="1" connect="1" arrows="1" fold="1" page="1" pageScale="1" pageWidth="827" pageHeight="1169" background="none" math="0" shadow="0">
      <root>
        <mxCell id="0" />
        <mxCell id="1" parent="0" />
        <mxCell id="_PjYLiZ7u1xAUvMMXe8_-27" value="" style="ellipse;whiteSpace=wrap;html=1;fillColor=none;dashed=1;rotation=45;" parent="1" vertex="1">
          <mxGeometry x="190" y="210" width="180" height="80" as="geometry" />
        </mxCell>
        <mxCell id="_PjYLiZ7u1xAUvMMXe8_-31" value="" style="ellipse;whiteSpace=wrap;html=1;fillColor=none;dashed=1;" parent="1" vertex="1">
          <mxGeometry x="210" y="260" width="220" height="170" as="geometry" />
        </mxCell>
        <mxCell id="_PjYLiZ7u1xAUvMMXe8_-30" value="" style="ellipse;whiteSpace=wrap;html=1;fillColor=none;dashed=1;rotation=-225;" parent="1" vertex="1">
          <mxGeometry x="261.21" y="188.79" width="240" height="80" as="geometry" />
        </mxCell>
        <mxCell id="_PjYLiZ7u1xAUvMMXe8_-1" value="&lt;font face=&quot;Helvetica&quot; style=&quot;font-size: 24px;&quot;&gt;1&lt;/font&gt;" style="ellipse;whiteSpace=wrap;html=1;aspect=fixed;strokeWidth=2;" parent="1" vertex="1">
          <mxGeometry x="300" y="270" width="40" height="40" as="geometry" />
        </mxCell>
        <mxCell id="_PjYLiZ7u1xAUvMMXe8_-2" value="&lt;font face=&quot;Helvetica&quot; style=&quot;font-size: 24px;&quot;&gt;0&lt;/font&gt;" style="ellipse;whiteSpace=wrap;html=1;aspect=fixed;strokeWidth=2;" parent="1" vertex="1">
          <mxGeometry x="380" y="350" width="40" height="40" as="geometry" />
        </mxCell>
        <mxCell id="_PjYLiZ7u1xAUvMMXe8_-3" value="&lt;font face=&quot;Helvetica&quot; style=&quot;font-size: 24px;&quot;&gt;2&lt;/font&gt;" style="ellipse;whiteSpace=wrap;html=1;aspect=fixed;strokeWidth=2;" parent="1" vertex="1">
          <mxGeometry x="220" y="350" width="40" height="40" as="geometry" />
        </mxCell>
        <mxCell id="_PjYLiZ7u1xAUvMMXe8_-4" value="&lt;font face=&quot;Helvetica&quot; style=&quot;font-size: 24px;&quot;&gt;3&lt;/font&gt;" style="ellipse;whiteSpace=wrap;html=1;aspect=fixed;strokeWidth=2;" parent="1" vertex="1">
          <mxGeometry x="420" y="150" width="40" height="40" as="geometry" />
        </mxCell>
        <mxCell id="_PjYLiZ7u1xAUvMMXe8_-5" value="&lt;font face=&quot;Helvetica&quot; style=&quot;font-size: 24px;&quot;&gt;4&lt;/font&gt;" style="ellipse;whiteSpace=wrap;html=1;aspect=fixed;strokeWidth=2;" parent="1" vertex="1">
          <mxGeometry x="340" y="70" width="40" height="40" as="geometry" />
        </mxCell>
        <mxCell id="_PjYLiZ7u1xAUvMMXe8_-6" value="&lt;font face=&quot;Helvetica&quot; style=&quot;font-size: 24px;&quot;&gt;5&lt;/font&gt;" style="ellipse;whiteSpace=wrap;html=1;aspect=fixed;strokeWidth=2;" parent="1" vertex="1">
          <mxGeometry x="500" y="70" width="40" height="40" as="geometry" />
        </mxCell>
        <mxCell id="_PjYLiZ7u1xAUvMMXe8_-7" value="&lt;font face=&quot;Helvetica&quot; style=&quot;font-size: 24px;&quot;&gt;6&lt;/font&gt;" style="ellipse;whiteSpace=wrap;html=1;aspect=fixed;strokeWidth=2;" parent="1" vertex="1">
          <mxGeometry x="580" y="150" width="40" height="40" as="geometry" />
        </mxCell>
        <mxCell id="_PjYLiZ7u1xAUvMMXe8_-8" value="&lt;font face=&quot;Helvetica&quot; style=&quot;font-size: 24px;&quot;&gt;7&lt;/font&gt;" style="ellipse;whiteSpace=wrap;html=1;aspect=fixed;strokeWidth=2;" parent="1" vertex="1">
          <mxGeometry x="500" y="230" width="40" height="40" as="geometry" />
        </mxCell>
        <mxCell id="_PjYLiZ7u1xAUvMMXe8_-9" value="&lt;font face=&quot;Helvetica&quot; style=&quot;font-size: 24px;&quot;&gt;8&lt;/font&gt;" style="ellipse;whiteSpace=wrap;html=1;aspect=fixed;strokeWidth=2;" parent="1" vertex="1">
          <mxGeometry x="500" y="350" width="40" height="40" as="geometry" />
        </mxCell>
        <mxCell id="_PjYLiZ7u1xAUvMMXe8_-10" value="&lt;font face=&quot;Helvetica&quot; style=&quot;font-size: 24px;&quot;&gt;9&lt;/font&gt;" style="ellipse;whiteSpace=wrap;html=1;aspect=fixed;strokeWidth=2;" parent="1" vertex="1">
          <mxGeometry x="580" y="70" width="40" height="40" as="geometry" />
        </mxCell>
        <mxCell id="_PjYLiZ7u1xAUvMMXe8_-11" value="&lt;font face=&quot;Helvetica&quot; style=&quot;font-size: 24px;&quot;&gt;10&lt;/font&gt;" style="ellipse;whiteSpace=wrap;html=1;aspect=fixed;strokeWidth=2;" parent="1" vertex="1">
          <mxGeometry x="220" y="190" width="40" height="40" as="geometry" />
        </mxCell>
        <mxCell id="_PjYLiZ7u1xAUvMMXe8_-12" value="" style="endArrow=classic;html=1;rounded=0;exitX=0;exitY=0;exitDx=0;exitDy=0;entryX=1;entryY=1;entryDx=0;entryDy=0;strokeWidth=2;" parent="1" source="_PjYLiZ7u1xAUvMMXe8_-2" target="_PjYLiZ7u1xAUvMMXe8_-1" edge="1">
          <mxGeometry width="50" height="50" relative="1" as="geometry">
            <mxPoint x="580" y="490" as="sourcePoint" />
            <mxPoint x="630" y="440" as="targetPoint" />
          </mxGeometry>
        </mxCell>
        <mxCell id="_PjYLiZ7u1xAUvMMXe8_-14" value="" style="endArrow=classic;html=1;rounded=0;exitX=0;exitY=0.5;exitDx=0;exitDy=0;entryX=1;entryY=0.5;entryDx=0;entryDy=0;strokeWidth=2;" parent="1" source="_PjYLiZ7u1xAUvMMXe8_-2" target="_PjYLiZ7u1xAUvMMXe8_-3" edge="1">
          <mxGeometry width="50" height="50" relative="1" as="geometry">
            <mxPoint x="580" y="490" as="sourcePoint" />
            <mxPoint x="630" y="440" as="targetPoint" />
          </mxGeometry>
        </mxCell>
        <mxCell id="_PjYLiZ7u1xAUvMMXe8_-15" value="" style="endArrow=classic;html=1;rounded=0;exitX=0;exitY=1;exitDx=0;exitDy=0;entryX=1;entryY=0;entryDx=0;entryDy=0;strokeWidth=2;" parent="1" source="_PjYLiZ7u1xAUvMMXe8_-1" target="_PjYLiZ7u1xAUvMMXe8_-3" edge="1">
          <mxGeometry width="50" height="50" relative="1" as="geometry">
            <mxPoint x="396" y="366" as="sourcePoint" />
            <mxPoint x="344" y="314" as="targetPoint" />
          </mxGeometry>
        </mxCell>
        <mxCell id="_PjYLiZ7u1xAUvMMXe8_-16" value="" style="endArrow=classic;html=1;rounded=0;exitX=1;exitY=0.5;exitDx=0;exitDy=0;entryX=0;entryY=0.5;entryDx=0;entryDy=0;strokeWidth=2;" parent="1" source="_PjYLiZ7u1xAUvMMXe8_-2" target="_PjYLiZ7u1xAUvMMXe8_-9" edge="1">
          <mxGeometry width="50" height="50" relative="1" as="geometry">
            <mxPoint x="396" y="366" as="sourcePoint" />
            <mxPoint x="344" y="314" as="targetPoint" />
          </mxGeometry>
        </mxCell>
        <mxCell id="_PjYLiZ7u1xAUvMMXe8_-17" value="" style="endArrow=classic;html=1;rounded=0;strokeWidth=2;exitX=1;exitY=0;exitDx=0;exitDy=0;" parent="1" source="_PjYLiZ7u1xAUvMMXe8_-1" target="_PjYLiZ7u1xAUvMMXe8_-4" edge="1">
          <mxGeometry width="50" height="50" relative="1" as="geometry">
            <mxPoint x="370" y="236" as="sourcePoint" />
            <mxPoint x="590" y="340" as="targetPoint" />
          </mxGeometry>
        </mxCell>
        <mxCell id="_PjYLiZ7u1xAUvMMXe8_-18" value="" style="endArrow=classic;html=1;rounded=0;exitX=0;exitY=0;exitDx=0;exitDy=0;strokeWidth=2;entryX=1;entryY=1;entryDx=0;entryDy=0;" parent="1" source="_PjYLiZ7u1xAUvMMXe8_-1" target="_PjYLiZ7u1xAUvMMXe8_-11" edge="1">
          <mxGeometry width="50" height="50" relative="1" as="geometry">
            <mxPoint x="344" y="286" as="sourcePoint" />
            <mxPoint x="396" y="234" as="targetPoint" />
          </mxGeometry>
        </mxCell>
        <mxCell id="_PjYLiZ7u1xAUvMMXe8_-19" value="" style="endArrow=classic;html=1;rounded=0;exitX=1;exitY=1;exitDx=0;exitDy=0;strokeWidth=2;entryX=0;entryY=0;entryDx=0;entryDy=0;" parent="1" source="_PjYLiZ7u1xAUvMMXe8_-5" target="_PjYLiZ7u1xAUvMMXe8_-4" edge="1">
          <mxGeometry width="50" height="50" relative="1" as="geometry">
            <mxPoint x="384" y="246" as="sourcePoint" />
            <mxPoint x="436" y="194" as="targetPoint" />
          </mxGeometry>
        </mxCell>
        <mxCell id="_PjYLiZ7u1xAUvMMXe8_-20" value="" style="endArrow=classic;html=1;rounded=0;exitX=0;exitY=1;exitDx=0;exitDy=0;strokeWidth=2;entryX=1;entryY=0;entryDx=0;entryDy=0;" parent="1" source="_PjYLiZ7u1xAUvMMXe8_-6" target="_PjYLiZ7u1xAUvMMXe8_-4" edge="1">
          <mxGeometry width="50" height="50" relative="1" as="geometry">
            <mxPoint x="384" y="114" as="sourcePoint" />
            <mxPoint x="436" y="166" as="targetPoint" />
          </mxGeometry>
        </mxCell>
        <mxCell id="_PjYLiZ7u1xAUvMMXe8_-21" value="" style="endArrow=classic;html=1;rounded=0;exitX=0;exitY=0.5;exitDx=0;exitDy=0;strokeWidth=2;entryX=1;entryY=0.5;entryDx=0;entryDy=0;" parent="1" source="_PjYLiZ7u1xAUvMMXe8_-7" target="_PjYLiZ7u1xAUvMMXe8_-4" edge="1">
          <mxGeometry width="50" height="50" relative="1" as="geometry">
            <mxPoint x="516" y="114" as="sourcePoint" />
            <mxPoint x="464" y="166" as="targetPoint" />
          </mxGeometry>
        </mxCell>
        <mxCell id="_PjYLiZ7u1xAUvMMXe8_-22" value="" style="endArrow=classic;html=1;rounded=0;exitX=0;exitY=0;exitDx=0;exitDy=0;strokeWidth=2;entryX=1;entryY=1;entryDx=0;entryDy=0;" parent="1" source="_PjYLiZ7u1xAUvMMXe8_-8" target="_PjYLiZ7u1xAUvMMXe8_-4" edge="1">
          <mxGeometry width="50" height="50" relative="1" as="geometry">
            <mxPoint x="384" y="246" as="sourcePoint" />
            <mxPoint x="436" y="194" as="targetPoint" />
          </mxGeometry>
        </mxCell>
        <mxCell id="_PjYLiZ7u1xAUvMMXe8_-23" value="" style="endArrow=classic;html=1;rounded=0;exitX=1;exitY=0;exitDx=0;exitDy=0;strokeWidth=2;entryX=0;entryY=1;entryDx=0;entryDy=0;" parent="1" source="_PjYLiZ7u1xAUvMMXe8_-8" target="_PjYLiZ7u1xAUvMMXe8_-7" edge="1">
          <mxGeometry width="50" height="50" relative="1" as="geometry">
            <mxPoint x="516" y="246" as="sourcePoint" />
            <mxPoint x="464" y="194" as="targetPoint" />
          </mxGeometry>
        </mxCell>
        <mxCell id="_PjYLiZ7u1xAUvMMXe8_-24" value="" style="endArrow=classic;html=1;rounded=0;exitX=0.5;exitY=1;exitDx=0;exitDy=0;strokeWidth=2;entryX=0.5;entryY=0;entryDx=0;entryDy=0;" parent="1" source="_PjYLiZ7u1xAUvMMXe8_-10" target="_PjYLiZ7u1xAUvMMXe8_-7" edge="1">
          <mxGeometry width="50" height="50" relative="1" as="geometry">
            <mxPoint x="544" y="246" as="sourcePoint" />
            <mxPoint x="596" y="194" as="targetPoint" />
          </mxGeometry>
        </mxCell>
        <mxCell id="_PjYLiZ7u1xAUvMMXe8_-25" value="" style="ellipse;whiteSpace=wrap;html=1;fillColor=none;dashed=1;" parent="1" vertex="1">
          <mxGeometry x="370" y="330" width="180" height="80" as="geometry" />
        </mxCell>
        <mxCell id="_PjYLiZ7u1xAUvMMXe8_-26" value="" style="ellipse;whiteSpace=wrap;html=1;fillColor=none;dashed=1;rotation=45;shadow=0;" parent="1" vertex="1">
          <mxGeometry x="310" y="90" width="180" height="80" as="geometry" />
        </mxCell>
        <mxCell id="_PjYLiZ7u1xAUvMMXe8_-28" value="" style="ellipse;whiteSpace=wrap;html=1;fillColor=none;dashed=1;rotation=-225;" parent="1" vertex="1">
          <mxGeometry x="390" y="90" width="180" height="80" as="geometry" />
        </mxCell>
        <mxCell id="_PjYLiZ7u1xAUvMMXe8_-29" value="" style="ellipse;whiteSpace=wrap;html=1;fillColor=none;dashed=1;rotation=90;" parent="1" vertex="1">
          <mxGeometry x="530" y="90" width="140" height="80" as="geometry" />
        </mxCell>
        <mxCell id="_PjYLiZ7u1xAUvMMXe8_-32" value="" style="ellipse;whiteSpace=wrap;html=1;fillColor=none;dashed=1;" parent="1" vertex="1">
          <mxGeometry x="410" y="110" width="220" height="170" as="geometry" />
        </mxCell>
        <mxCell id="ZnwNd1amS8vzW6LrnCgQ-1" value="&lt;i style=&quot;font-size: 18px;&quot;&gt;B&lt;/i&gt;&lt;sub style=&quot;&quot;&gt;&lt;font style=&quot;font-size: 12.5px;&quot;&gt;1&lt;/font&gt;&lt;/sub&gt;" style="text;html=1;align=center;verticalAlign=middle;resizable=0;points=[];autosize=1;strokeColor=none;fillColor=none;strokeWidth=1;fontFamily=Times New Roman;fontStyle=0" parent="1" vertex="1">
          <mxGeometry x="490" y="30" width="40" height="40" as="geometry" />
        </mxCell>
        <mxCell id="ZnwNd1amS8vzW6LrnCgQ-4" value="&lt;span style=&quot;&quot;&gt;&lt;span style=&quot;font-style: italic; font-size: 18px;&quot;&gt;B&lt;/span&gt;&lt;span style=&quot;font-size: 15px;&quot;&gt;&lt;sub style=&quot;&quot;&gt;0&lt;/sub&gt;&lt;/span&gt;&lt;/span&gt;" style="text;html=1;align=center;verticalAlign=middle;resizable=0;points=[];autosize=1;strokeColor=none;fillColor=none;strokeWidth=1;fontFamily=Times New Roman;fontStyle=0" parent="1" vertex="1">
          <mxGeometry x="350" y="30" width="40" height="40" as="geometry" />
        </mxCell>
        <mxCell id="ZnwNd1amS8vzW6LrnCgQ-5" value="&lt;span style=&quot;&quot;&gt;&lt;span style=&quot;font-style: italic; font-size: 18px;&quot;&gt;B&lt;/span&gt;&lt;span style=&quot;font-size: 15px;&quot;&gt;&lt;sub style=&quot;&quot;&gt;2&lt;/sub&gt;&lt;/span&gt;&lt;/span&gt;" style="text;html=1;align=center;verticalAlign=middle;resizable=0;points=[];autosize=1;strokeColor=none;fillColor=none;strokeWidth=1;fontFamily=Times New Roman;fontStyle=0" parent="1" vertex="1">
          <mxGeometry x="630" y="70" width="40" height="40" as="geometry" />
        </mxCell>
        <mxCell id="ZnwNd1amS8vzW6LrnCgQ-6" value="&lt;span style=&quot;&quot;&gt;&lt;span style=&quot;font-style: italic; font-size: 18px;&quot;&gt;B&lt;/span&gt;&lt;span style=&quot;font-size: 15px;&quot;&gt;&lt;sub style=&quot;&quot;&gt;3&lt;/sub&gt;&lt;/span&gt;&lt;/span&gt;" style="text;html=1;align=center;verticalAlign=middle;resizable=0;points=[];autosize=1;strokeColor=none;fillColor=none;strokeWidth=1;fontFamily=Times New Roman;fontStyle=0" parent="1" vertex="1">
          <mxGeometry x="570" y="260" width="40" height="40" as="geometry" />
        </mxCell>
        <mxCell id="ZnwNd1amS8vzW6LrnCgQ-7" value="&lt;span style=&quot;&quot;&gt;&lt;span style=&quot;font-style: italic; font-size: 18px;&quot;&gt;B&lt;/span&gt;&lt;span style=&quot;font-size: 15px;&quot;&gt;&lt;sub style=&quot;&quot;&gt;4&lt;/sub&gt;&lt;/span&gt;&lt;/span&gt;" style="text;html=1;align=center;verticalAlign=middle;resizable=0;points=[];autosize=1;strokeColor=none;fillColor=none;strokeWidth=1;fontFamily=Times New Roman;fontStyle=0" parent="1" vertex="1">
          <mxGeometry x="320" y="170" width="40" height="40" as="geometry" />
        </mxCell>
        <mxCell id="ZnwNd1amS8vzW6LrnCgQ-8" value="&lt;span style=&quot;&quot;&gt;&lt;span style=&quot;font-style: italic; font-size: 18px;&quot;&gt;B&lt;/span&gt;&lt;span style=&quot;font-size: 15px;&quot;&gt;&lt;sub style=&quot;&quot;&gt;5&lt;/sub&gt;&lt;/span&gt;&lt;/span&gt;" style="text;html=1;align=center;verticalAlign=middle;resizable=0;points=[];autosize=1;strokeColor=none;fillColor=none;strokeWidth=1;fontFamily=Times New Roman;fontStyle=0" parent="1" vertex="1">
          <mxGeometry x="230" y="148.79" width="40" height="40" as="geometry" />
        </mxCell>
        <mxCell id="ZnwNd1amS8vzW6LrnCgQ-10" value="&lt;span style=&quot;&quot;&gt;&lt;span style=&quot;font-style: italic; font-size: 18px;&quot;&gt;B&lt;/span&gt;&lt;span style=&quot;font-size: 15px;&quot;&gt;&lt;sub style=&quot;&quot;&gt;6&lt;/sub&gt;&lt;/span&gt;&lt;/span&gt;" style="text;html=1;align=center;verticalAlign=middle;resizable=0;points=[];autosize=1;strokeColor=none;fillColor=none;strokeWidth=1;fontFamily=Times New Roman;fontStyle=0" parent="1" vertex="1">
          <mxGeometry x="200" y="390" width="40" height="40" as="geometry" />
        </mxCell>
        <mxCell id="ZnwNd1amS8vzW6LrnCgQ-11" value="&lt;span style=&quot;&quot;&gt;&lt;span style=&quot;font-style: italic; font-size: 18px;&quot;&gt;B&lt;/span&gt;&lt;span style=&quot;font-size: 15px;&quot;&gt;&lt;sub style=&quot;&quot;&gt;7&lt;/sub&gt;&lt;/span&gt;&lt;/span&gt;" style="text;html=1;align=center;verticalAlign=middle;resizable=0;points=[];autosize=1;strokeColor=none;fillColor=none;strokeWidth=1;fontFamily=Times New Roman;fontStyle=0" parent="1" vertex="1">
          <mxGeometry x="530" y="320" width="40" height="40" as="geometry" />
        </mxCell>
        <mxCell id="ZnwNd1amS8vzW6LrnCgQ-13" value="&lt;var class=&quot;vector&quot;&gt;&lt;span&gt;&lt;font style=&quot;font-size: 18px;&quot;&gt;⃗&lt;/font&gt;&lt;/span&gt;&lt;/var&gt;" style="text;html=1;align=center;verticalAlign=middle;resizable=0;points=[];autosize=1;strokeColor=none;fillColor=none;fontFamily=Times New Roman;fontStyle=0" parent="1" vertex="1">
          <mxGeometry x="640" y="65" width="20" height="40" as="geometry" />
        </mxCell>
        <mxCell id="ZnwNd1amS8vzW6LrnCgQ-14" value="&lt;var class=&quot;vector&quot;&gt;&lt;span&gt;&lt;font style=&quot;font-size: 18px;&quot;&gt;⃗&lt;/font&gt;&lt;/span&gt;&lt;/var&gt;" style="text;html=1;align=center;verticalAlign=middle;resizable=0;points=[];autosize=1;strokeColor=none;fillColor=none;fontFamily=Times New Roman;" parent="1" vertex="1">
          <mxGeometry x="500" y="24" width="20" height="40" as="geometry" />
        </mxCell>
        <mxCell id="ZnwNd1amS8vzW6LrnCgQ-15" value="&lt;var class=&quot;vector&quot;&gt;&lt;span&gt;&lt;font style=&quot;font-size: 18px;&quot;&gt;⃗&lt;/font&gt;&lt;/span&gt;&lt;/var&gt;" style="text;html=1;align=center;verticalAlign=middle;resizable=0;points=[];autosize=1;strokeColor=none;fillColor=none;fontFamily=Times New Roman;" parent="1" vertex="1">
          <mxGeometry x="360" y="25" width="20" height="40" as="geometry" />
        </mxCell>
        <mxCell id="ZnwNd1amS8vzW6LrnCgQ-16" value="&lt;var class=&quot;vector&quot;&gt;&lt;span&gt;&lt;font style=&quot;font-size: 18px;&quot;&gt;⃗&lt;/font&gt;&lt;/span&gt;&lt;/var&gt;" style="text;html=1;align=center;verticalAlign=middle;resizable=0;points=[];autosize=1;strokeColor=none;fillColor=none;fontFamily=Times New Roman;" parent="1" vertex="1">
          <mxGeometry x="330" y="166" width="20" height="40" as="geometry" />
        </mxCell>
        <mxCell id="ZnwNd1amS8vzW6LrnCgQ-17" value="&lt;var class=&quot;vector&quot;&gt;&lt;span&gt;&lt;font style=&quot;font-size: 18px;&quot;&gt;⃗&lt;/font&gt;&lt;/span&gt;&lt;/var&gt;" style="text;html=1;align=center;verticalAlign=middle;resizable=0;points=[];autosize=1;strokeColor=none;fillColor=none;fontFamily=Times New Roman;" parent="1" vertex="1">
          <mxGeometry x="240" y="144" width="20" height="40" as="geometry" />
        </mxCell>
        <mxCell id="ZnwNd1amS8vzW6LrnCgQ-18" value="&lt;var class=&quot;vector&quot;&gt;&lt;span&gt;&lt;font style=&quot;font-size: 18px;&quot;&gt;⃗&lt;/font&gt;&lt;/span&gt;&lt;/var&gt;" style="text;html=1;align=center;verticalAlign=middle;resizable=0;points=[];autosize=1;strokeColor=none;fillColor=none;fontFamily=Times New Roman;" parent="1" vertex="1">
          <mxGeometry x="580" y="255" width="20" height="40" as="geometry" />
        </mxCell>
        <mxCell id="ZnwNd1amS8vzW6LrnCgQ-19" value="&lt;var class=&quot;vector&quot;&gt;&lt;span&gt;&lt;font style=&quot;font-size: 18px;&quot;&gt;⃗&lt;/font&gt;&lt;/span&gt;&lt;/var&gt;" style="text;html=1;align=center;verticalAlign=middle;resizable=0;points=[];autosize=1;strokeColor=none;fillColor=none;fontFamily=Times New Roman;" parent="1" vertex="1">
          <mxGeometry x="540" y="315" width="20" height="40" as="geometry" />
        </mxCell>
        <mxCell id="ZnwNd1amS8vzW6LrnCgQ-20" value="&lt;var class=&quot;vector&quot;&gt;&lt;span&gt;&lt;font style=&quot;font-size: 18px;&quot;&gt;⃗&lt;/font&gt;&lt;/span&gt;&lt;/var&gt;" style="text;html=1;align=center;verticalAlign=middle;resizable=0;points=[];autosize=1;strokeColor=none;fillColor=none;fontFamily=Times New Roman;" parent="1" vertex="1">
          <mxGeometry x="210" y="385" width="20" height="40" as="geometry" />
        </mxCell>
      </root>
    </mxGraphModel>
  </diagram>
</mxfile>
